<svg width="195" height="37" viewBox="0 0 195 37" fill="none" xmlns="http://www.w3.org/2000/svg">
<path d="M42.08 32V27.644L61.412 11.012H42.908V6.332H69.764V10.688L50.396 27.32H69.692V32H42.08ZM82.3317 32.18C79.1157 32.18 76.6077 31.388 74.8077 29.804C73.0077 28.196 72.1077 25.844 72.1077 22.748C72.1077 19.628 73.0077 17.276 74.8077 15.692C76.6077 14.084 79.1157 13.28 82.3317 13.28H91.3317C93.4437 13.28 95.0517 13.784 96.1557 14.792C97.2837 15.776 97.8477 17.192 97.8477 19.04C97.8477 22.808 95.6757 24.692 91.3317 24.692H77.7237C78.2277 26.924 79.7637 28.04 82.3317 28.04H96.9117V32.18H82.3317ZM82.3317 17.42C79.8597 17.42 78.3357 18.464 77.7597 20.552H91.0797C91.5597 20.552 91.9317 20.408 92.1957 20.12C92.4837 19.832 92.6277 19.436 92.6277 18.932C92.6277 17.924 92.1117 17.42 91.0797 17.42H82.3317ZM101.093 32V13.46H106.313V32H101.093ZM101.057 10.4V6.332H106.349V10.4H101.057ZM119.917 32C117.829 32 116.293 31.484 115.309 30.452C114.325 29.396 113.833 28.016 113.833 26.312V17.6H108.469V13.46H113.833V7.772H119.053V13.46H126.757V17.6H119.053V25.664C119.053 27.128 119.773 27.86 121.213 27.86H127.765V32H119.917Z" fill="white"/>
<path d="M152.396 12.056C152.396 13.232 152.144 14.252 151.64 15.116C151.16 15.98 150.5 16.688 149.66 17.24C148.844 17.792 147.908 18.2 146.852 18.464V18.572C148.916 18.812 150.476 19.436 151.532 20.444C152.612 21.452 153.152 22.808 153.152 24.512C153.152 26 152.78 27.344 152.036 28.544C151.316 29.72 150.188 30.656 148.652 31.352C147.14 32.024 145.184 32.36 142.784 32.36C141.368 32.36 140.048 32.24 138.824 32C137.6 31.76 136.448 31.412 135.368 30.956V26.348C136.472 26.9 137.624 27.32 138.824 27.608C140.048 27.896 141.176 28.04 142.208 28.04C144.152 28.04 145.508 27.704 146.276 27.032C147.068 26.36 147.464 25.412 147.464 24.188C147.464 23.468 147.284 22.868 146.924 22.388C146.564 21.884 145.928 21.512 145.016 21.272C144.128 21.008 142.88 20.876 141.272 20.876H139.328V16.7H141.308C142.892 16.7 144.092 16.556 144.908 16.268C145.748 15.956 146.312 15.548 146.6 15.044C146.912 14.516 147.068 13.916 147.068 13.244C147.068 12.332 146.78 11.624 146.204 11.12C145.652 10.592 144.716 10.328 143.396 10.328C142.58 10.328 141.836 10.436 141.164 10.652C140.492 10.844 139.88 11.084 139.328 11.372C138.8 11.66 138.332 11.936 137.924 12.2L135.404 8.456C136.076 7.976 136.82 7.544 137.636 7.16C138.476 6.776 139.4 6.476 140.408 6.26C141.416 6.044 142.544 5.936 143.792 5.936C146.432 5.936 148.52 6.476 150.056 7.556C151.616 8.612 152.396 10.112 152.396 12.056ZM155.862 21.092C155.862 19.604 155.97 18.14 156.186 16.7C156.402 15.26 156.774 13.904 157.302 12.632C157.854 11.336 158.61 10.196 159.57 9.212C160.554 8.204 161.79 7.424 163.278 6.872C164.79 6.296 166.614 6.008 168.75 6.008C169.254 6.008 169.842 6.032 170.514 6.08C171.186 6.104 171.75 6.164 172.206 6.26V10.616C171.75 10.496 171.246 10.412 170.694 10.364C170.166 10.292 169.638 10.256 169.11 10.256C167.502 10.256 166.17 10.448 165.114 10.832C164.082 11.216 163.266 11.768 162.666 12.488C162.066 13.208 161.622 14.06 161.334 15.044C161.07 16.004 160.914 17.084 160.866 18.284H161.082C161.418 17.708 161.826 17.204 162.306 16.772C162.81 16.316 163.422 15.956 164.142 15.692C164.862 15.428 165.702 15.296 166.662 15.296C168.174 15.296 169.47 15.62 170.55 16.268C171.654 16.892 172.506 17.816 173.106 19.04C173.706 20.24 174.006 21.704 174.006 23.432C174.006 25.28 173.646 26.876 172.926 28.22C172.23 29.564 171.222 30.596 169.902 31.316C168.606 32.012 167.058 32.36 165.258 32.36C163.938 32.36 162.702 32.132 161.55 31.676C160.422 31.22 159.426 30.536 158.562 29.624C157.722 28.688 157.062 27.512 156.582 26.096C156.102 24.68 155.862 23.012 155.862 21.092ZM165.15 28.004C166.206 28.004 167.07 27.644 167.742 26.924C168.414 26.18 168.75 25.04 168.75 23.504C168.75 22.256 168.462 21.272 167.886 20.552C167.31 19.832 166.434 19.472 165.258 19.472C164.466 19.472 163.77 19.652 163.17 20.012C162.57 20.348 162.102 20.792 161.766 21.344C161.43 21.896 161.262 22.46 161.262 23.036C161.262 23.636 161.346 24.236 161.514 24.836C161.682 25.412 161.922 25.94 162.234 26.42C162.57 26.9 162.978 27.284 163.458 27.572C163.938 27.86 164.502 28.004 165.15 28.004ZM186.003 15.584C187.563 15.584 188.955 15.884 190.179 16.484C191.403 17.084 192.363 17.96 193.059 19.112C193.779 20.264 194.139 21.692 194.139 23.396C194.139 25.244 193.755 26.84 192.987 28.184C192.219 29.528 191.067 30.56 189.531 31.28C188.019 32 186.135 32.36 183.879 32.36C182.535 32.36 181.263 32.24 180.063 32C178.887 31.76 177.855 31.412 176.967 30.956V26.276C177.855 26.732 178.923 27.128 180.171 27.464C181.419 27.776 182.595 27.932 183.699 27.932C184.779 27.932 185.679 27.788 186.399 27.5C187.143 27.212 187.707 26.768 188.091 26.168C188.475 25.568 188.667 24.8 188.667 23.864C188.667 22.592 188.247 21.632 187.407 20.984C186.567 20.312 185.271 19.976 183.519 19.976C182.847 19.976 182.151 20.048 181.431 20.192C180.711 20.312 180.111 20.432 179.631 20.552L177.471 19.4L178.443 6.296H192.375V10.904H183.195L182.727 15.944C183.135 15.872 183.567 15.8 184.023 15.728C184.503 15.632 185.163 15.584 186.003 15.584Z" fill="#763BE5"/>
<ellipse cx="19.3061" cy="18.8198" rx="12" ry="11.5" transform="rotate(-178.453 19.3061 18.8198)" fill="#5A27BA"/>
<g filter="url(#filter0_di_52_55)">
<path d="M18.0349 19.6287L18 0.999999L18.8328 1.01577L19.5261 1.06309L20.3699 1.16168L21.3274 1.3273L22.3472 1.58363L23.191 1.84389L23.9614 2.12782L24.6107 2.40386L25.2747 2.71933L25.913 3.05847L26.566 3.44493L27.3254 3.94574L27.883 4.35586L28.4297 4.78963L28.9946 5.28256L29.5119 5.76761L30.0145 6.2842L30.5281 6.856L31.0563 7.50666L31.5076 8.11395L31.9074 8.69758L32.2339 9.21417L32.5164 9.69527L32.7915 10.1921L33.0703 10.7403L33.3418 11.3239L33.6316 12.0022L33.8371 12.5385L33.9985 12.9999L34.1562 13.4967L34.2993 13.9936L34.435 14.5102L34.5451 14.9795L34.6405 15.429L34.7212 15.8588L34.7836 16.2453L34.8276 16.5805L34.8973 17.1878L34.9523 17.7793L34.9817 18.3471L35 18.9939L34.9963 19.7865L34.9583 20.4919L34.8973 21.2456L34.8066 21.9743L34.6814 22.7653L34.5341 23.4302L34.369 24.1558L34.1815 24.8422L33.672 26.2498L33.0945 27.6143L32.7475 28.2491L32.4137 28.8288L32.0505 29.4282L31.6763 30L18.0349 19.6287Z" fill="#5424AD"/>
</g>
<g filter="url(#filter1_i_52_55)">
<path d="M5.63579 25.2721C9.17586 32.1461 17.9885 35.4921 25.3536 31.6991C32.7186 27.9062 35.3134 18.5584 31.7733 11.6843" stroke="#5E28C3" stroke-width="7" stroke-linecap="round"/>
</g>
<g filter="url(#filter2_i_52_55)">
<path d="M31.9386 12.1057C28.3985 5.2317 19.5858 1.88571 12.2208 5.67865C4.8558 9.47159 2.26102 18.8194 5.80109 25.6935" stroke="#763BE5" stroke-width="7" stroke-linecap="round"/>
</g>
<defs>
<filter id="filter0_di_52_55" x="8.3" y="1" width="26.7" height="35.7" filterUnits="userSpaceOnUse" color-interpolation-filters="sRGB">
<feFlood flood-opacity="0" result="BackgroundImageFix"/>
<feColorMatrix in="SourceAlpha" type="matrix" values="0 0 0 0 0 0 0 0 0 0 0 0 0 0 0 0 0 0 127 0" result="hardAlpha"/>
<feOffset dx="-7" dy="4"/>
<feGaussianBlur stdDeviation="1.35"/>
<feComposite in2="hardAlpha" operator="out"/>
<feColorMatrix type="matrix" values="0 0 0 0 0.488765 0 0 0 0 0.33314 0 0 0 0 0.779841 0 0 0 0.36 0"/>
<feBlend mode="color-dodge" in2="BackgroundImageFix" result="effect1_dropShadow_52_55"/>
<feBlend mode="normal" in="SourceGraphic" in2="effect1_dropShadow_52_55" result="shape"/>
<feColorMatrix in="SourceAlpha" type="matrix" values="0 0 0 0 0 0 0 0 0 0 0 0 0 0 0 0 0 0 127 0" result="hardAlpha"/>
<feOffset dx="-6" dy="4"/>
<feGaussianBlur stdDeviation="2"/>
<feComposite in2="hardAlpha" operator="arithmetic" k2="-1" k3="1"/>
<feColorMatrix type="matrix" values="0 0 0 0 0.462356 0 0 0 0 0.229474 0 0 0 0 0.89793 0 0 0 0.36 0"/>
<feBlend mode="normal" in2="shape" result="effect2_innerShadow_52_55"/>
</filter>
<filter id="filter1_i_52_55" x="2.13506" y="8.18361" width="34.7026" height="30.6081" filterUnits="userSpaceOnUse" color-interpolation-filters="sRGB">
<feFlood flood-opacity="0" result="BackgroundImageFix"/>
<feBlend mode="normal" in="SourceGraphic" in2="BackgroundImageFix" result="shape"/>
<feColorMatrix in="SourceAlpha" type="matrix" values="0 0 0 0 0 0 0 0 0 0 0 0 0 0 0 0 0 0 127 0" result="hardAlpha"/>
<feOffset dy="2"/>
<feGaussianBlur stdDeviation="2.1"/>
<feComposite in2="hardAlpha" operator="arithmetic" k2="-1" k3="1"/>
<feColorMatrix type="matrix" values="0 0 0 0 0 0 0 0 0 0 0 0 0 0 0 0 0 0 0.25 0"/>
<feBlend mode="normal" in2="shape" result="effect1_innerShadow_52_55"/>
</filter>
<filter id="filter2_i_52_55" x="0.736725" y="0.586098" width="34.7026" height="30.6081" filterUnits="userSpaceOnUse" color-interpolation-filters="sRGB">
<feFlood flood-opacity="0" result="BackgroundImageFix"/>
<feBlend mode="normal" in="SourceGraphic" in2="BackgroundImageFix" result="shape"/>
<feColorMatrix in="SourceAlpha" type="matrix" values="0 0 0 0 0 0 0 0 0 0 0 0 0 0 0 0 0 0 127 0" result="hardAlpha"/>
<feOffset dy="2"/>
<feGaussianBlur stdDeviation="2.1"/>
<feComposite in2="hardAlpha" operator="arithmetic" k2="-1" k3="1"/>
<feColorMatrix type="matrix" values="0 0 0 0 0 0 0 0 0 0 0 0 0 0 0 0 0 0 0.25 0"/>
<feBlend mode="normal" in2="shape" result="effect1_innerShadow_52_55"/>
</filter>
</defs>
</svg>
